<svg width="48" height="554" viewBox="0 0 48 554" fill="none" xmlns="http://www.w3.org/2000/svg">
<rect y="0.25" width="14.8094" height="440.273" fill="#94E7DC"/>
<path d="M33.9907 497.338L33.9983 495.041L34.0059 490.786L47.0987 505.807L47.0987 512.328L33.9907 497.338Z" fill="#94E7DC"/>
<path d="M33.9907 476.626L33.9983 474.329L34.0059 470.074L47.0987 485.095L47.0987 491.616L33.9907 476.626Z" fill="#94E7DC"/>
<path d="M33.9907 518.048L33.9983 515.751L34.0059 511.496L47.0987 526.517L47.0987 533.038L33.9907 518.048Z" fill="#94E7DC"/>
<path d="M33.9915 538.76L33.9991 536.463L34.0066 532.207L47.0995 547.229L47.0995 553.75L33.9915 538.76Z" fill="#94E7DC"/>
<path d="M33.9907 486.982L33.9983 484.686L34.0059 480.43L47.0987 495.451L47.0987 501.973L33.9907 486.982Z" fill="#94E7DC"/>
<path d="M33.9907 466.271L33.9983 463.975L34.0059 459.719L47.0987 474.74L47.0987 481.262L33.9907 466.271Z" fill="#94E7DC"/>
<path d="M33.9907 507.691L33.9983 505.394L34.0059 501.139L47.0987 516.16L47.0987 522.681L33.9907 507.691Z" fill="#94E7DC"/>
<path d="M33.9907 528.402L33.9983 526.106L34.0059 521.85L47.0987 536.871L47.0987 543.393L33.9907 528.402Z" fill="#94E7DC"/>
</svg>
