<svg width="504" height="901" viewBox="0 0 504 901" fill="none" xmlns="http://www.w3.org/2000/svg">
<path fill-rule="evenodd" clip-rule="evenodd" d="M250.822 10H67.8221L62.4979 16.1229H29.545V66.7476L21 74.4989V889.166H204H250.282H433.282L438.394 883.288H472.167V831.403L483.151 821.439V57.3717L476.548 51.6299V15.7155H440.637L435.667 10H252.667H250.822Z" fill="#FF0000" fill-opacity="0.2"/>
<path d="M89.4609 322L89.4609 295.984H89.9883L97.7227 314.559V322H89.4609ZM89.4609 286.375V280.984H95.9063L107.098 308.113L113.309 294.109H113.895L113.895 313.152L109.969 322H104.285L89.4609 286.375ZM117.059 322L117.059 280.984H125.32L125.32 322H117.059ZM142.242 322L142.242 280.984H163.57V289.188H150.504V297.508H158.062V305.77H150.504L150.504 313.738H163.57L163.57 322H142.242ZM180.258 322L180.258 295.984H180.785L188.52 314.559L188.52 322H180.258ZM180.258 286.375V280.984H186.703L197.895 308.113L204.105 294.109H204.691V313.152L200.766 322H195.082L180.258 286.375ZM207.855 322L207.855 280.984H216.117L216.117 322H207.855ZM232.336 322L232.336 280.984H240.539L240.539 322H232.336ZM243.762 322V314.793H244.055C246.398 314.793 247.961 313.816 248.742 311.863C249.016 311.238 249.152 310.594 249.152 309.93C249.152 307.977 248.371 306.57 246.809 305.711C246.027 305.281 245.168 305.066 244.23 305.066H243.762V297.918H244.23C246.418 297.918 247.922 296.98 248.742 295.105C249.016 294.441 249.152 293.758 249.152 293.055C249.152 291.141 248.352 289.734 246.75 288.836C245.93 288.406 245.031 288.191 244.055 288.191H243.762V280.984H245.168C250.246 280.984 253.82 282.84 255.891 286.551C256.867 288.348 257.355 290.32 257.355 292.469C257.355 295.867 256.32 298.621 254.25 300.73C253.938 301.004 253.645 301.258 253.371 301.492C255.637 303.172 256.945 305.73 257.297 309.168C257.336 309.637 257.355 310.086 257.355 310.516C257.355 314.305 256.027 317.273 253.371 319.422C251.184 321.141 248.449 322 245.168 322H243.762ZM273.633 322V280.984H294.961V289.187H281.895V297.508H289.453V305.77H281.895V313.738H294.961V322H273.633ZM311.648 322V280.984H319.91V322H311.648ZM323.074 305.242V297.918H323.836C326.336 297.918 327.938 296.902 328.641 294.871C328.797 294.363 328.875 293.836 328.875 293.289C328.875 291.219 327.898 289.832 325.945 289.129C325.32 288.895 324.617 288.777 323.836 288.777H323.074V280.984H324.363C329.48 281.062 333.074 282.879 335.145 286.434C336.121 288.113 336.609 290.008 336.609 292.117C336.57 296.141 335.242 299.227 332.625 301.375C334.578 302.625 335.828 304.891 336.375 308.172C336.414 308.562 336.453 308.934 336.492 309.285L337.488 322H329.871L328.992 311.57C328.68 308.445 327.781 306.512 326.297 305.77C325.594 305.457 324.734 305.281 323.719 305.242H323.074ZM351.949 312.742L359.391 310.105C359.391 311.082 359.664 311.941 360.211 312.684C360.758 313.426 361.305 313.914 361.852 314.148L362.672 314.559V322.176C359.352 322.176 356.52 320.73 354.176 317.84C352.73 316.004 351.988 314.305 351.949 312.742ZM352.418 292.234C352.418 287.937 354.254 284.715 357.926 282.566C359.605 281.551 361.188 281.023 362.672 280.984V288.719C361.695 288.992 360.973 289.695 360.504 290.828C360.348 291.18 360.27 291.551 360.27 291.941C360.27 293.543 361.461 294.91 363.844 296.043C364.352 296.277 365.172 296.629 366.305 297.098C368.18 297.84 369.508 298.445 370.289 298.914C373.453 300.789 375.562 302.703 376.617 304.656C377.398 306.18 377.789 307.879 377.789 309.754C377.789 313.309 376.441 316.355 373.746 318.895C371.441 321.082 368.824 322.176 365.895 322.176V314.559C367.418 314.363 368.492 313.562 369.117 312.156C369.391 311.531 369.527 310.848 369.527 310.105C369.527 308.113 368.043 306.473 365.074 305.184C364.527 304.949 363.668 304.617 362.496 304.187C361.129 303.719 360.172 303.348 359.625 303.074C356.266 301.473 354.117 299.402 353.18 296.863C352.672 295.496 352.418 293.953 352.418 292.234ZM365.895 288.719V280.984C369.176 280.984 371.93 282.371 374.156 285.145C375.445 286.785 376.109 288.27 376.148 289.598L368.531 292.117C368.531 290.477 367.73 289.363 366.129 288.777C365.973 288.738 365.895 288.719 365.895 288.719ZM89.2266 400.574L89.2266 381.297C89.2266 379.227 90.1055 377.117 91.8633 374.969C94.207 372.156 97.1758 370.73 100.77 370.691V378.953C99.168 378.992 98.1133 379.891 97.6055 381.648C97.5273 381.922 97.4883 382.117 97.4883 382.234L97.4883 400.574C97.4883 402.176 98.3672 403.27 100.125 403.855C100.398 403.934 100.594 403.973 100.711 403.973V412.293C98.4844 412.293 96.2578 411.492 94.0313 409.891C90.8672 407.547 89.2656 404.441 89.2266 400.574ZM103.934 412.293V403.973C104.559 403.973 105.262 403.641 106.043 402.977C106.785 402.312 107.176 401.512 107.215 400.574L107.215 382.234C107.215 381.531 106.883 380.789 106.219 380.008C105.594 379.344 104.832 378.992 103.934 378.953V370.691C107.879 370.691 111.043 372.391 113.426 375.789C114.793 377.742 115.477 379.578 115.477 381.297L115.477 400.574C115.477 404.91 113.543 408.23 109.676 410.535C107.645 411.707 105.73 412.293 103.934 412.293ZM132.164 412V383.172H132.633L140.426 395.711V412H132.164ZM132.164 376.375V370.984H138.902L158.238 402.156V412H154.313L132.164 376.375ZM149.977 382.82V370.984H158.238V395.359H157.77L149.977 382.82ZM175.16 412V370.984L183.422 370.984V403.797H197.191V412H175.16ZM210.773 370.984H219.387L227.004 397.176V412H218.449V397.234L210.773 370.984ZM225.012 378.895L227.297 370.984H235.793L229.406 392.605H228.879L225.012 378.895Z" fill="white"/>
<path d="M249.5 119.498H253.574C254.422 119.618 255.272 119.729 256.118 119.861C263.826 121.059 270.017 124.84 274.759 130.976C278.493 135.805 280.565 141.307 280.843 147.419C280.984 150.528 280.937 153.648 280.973 156.763C280.976 157.089 280.973 157.415 280.973 157.815C281.593 157.815 282.082 157.823 282.569 157.815C284.365 157.784 285.676 158.636 286.678 160.058C287.66 161.451 287.982 163.043 287.984 164.697C287.997 178.951 288.017 193.207 287.973 207.461C287.964 210.607 286.823 213.178 283.571 214.315H219.499C217.715 213.704 216.338 212.6 215.754 210.787C215.382 209.633 215.113 208.389 215.11 207.183C215.065 193.453 215.076 179.723 215.086 165.991C215.086 165.008 215.126 164.017 215.239 163.039C215.61 159.828 217.865 157.823 221.058 157.813C221.384 157.813 221.71 157.813 222.101 157.813C222.101 154.965 222.08 152.254 222.106 149.543C222.151 144.963 222.971 140.544 225.012 136.411C229.379 127.564 236.301 121.97 246.049 120.027C247.188 119.799 248.35 119.672 249.5 119.498ZM268.587 157.771C268.587 154.045 268.893 150.38 268.519 146.787C267.909 140.939 264.715 136.52 259.555 133.789C248.092 127.718 234.418 135.996 234.314 148.967C234.292 151.621 234.307 154.274 234.31 156.928C234.31 157.197 234.344 157.463 234.364 157.773H268.589L268.587 157.771ZM245.659 192.651C245.659 193.607 245.659 194.563 245.659 195.518C245.659 196.505 245.657 197.492 245.661 198.477C245.67 200.802 246.744 201.889 249.042 201.894C250.707 201.898 252.372 201.898 254.037 201.894C256.333 201.889 257.411 200.802 257.415 198.477C257.42 195.301 257.424 192.125 257.415 188.949C257.409 187.335 257.496 185.888 258.513 184.377C260.485 181.446 260 177.888 257.731 175.125C255.833 172.812 252.027 171.81 248.942 172.808C243.561 174.551 241.651 180.97 245.17 185.416C245.446 185.764 245.625 186.285 245.638 186.731C245.688 188.703 245.661 190.677 245.661 192.65L245.659 192.651Z" fill="white"/>
<rect x="70" y="598.6" width="364.84" height="2.55957" fill="#E79494"/>
<path d="M79.5853 585.608L79.5853 581.764L84.9135 579.16L79.5853 576.799V572.863L90.3021 578.252V580.189L79.5853 585.608Z" fill="white" fill-opacity="0.8"/>
<path fill-rule="evenodd" clip-rule="evenodd" d="M141 893.846H12.3778V814.052H5.37781V893.846V900.846H12.3778L141 900.846V893.846ZM102.736 0V7H56.8757L52.8829 11.5917H19.9302V62.2163L12.3778 69.0673V693.898H5.37781L5.37756 75.4174V11.5917L5.37781 0H12.3778H102.736ZM16.1149 714.237L16.1056 717.06L16.0962 722.292L0 703.825V695.808L16.1149 714.237ZM16.1061 742.523L16.1155 739.699L0.000610352 721.271V729.288L16.0968 747.755L16.1061 742.523ZM16.1155 765.16L16.1061 767.984L16.0968 773.216L0.000610352 754.749V746.731L16.1155 765.16ZM16.1155 790.623L16.1061 793.447L16.0968 798.679L0.000610352 780.212V772.194L16.1155 790.623ZM16.1061 780.715L16.1155 777.891L0.000610352 759.462V767.48L16.0968 785.947L16.1061 780.715ZM16.1155 803.353L16.1061 806.177L16.0968 811.409L0.000610352 792.942V784.924L16.1155 803.353ZM16.1061 755.256L16.1155 752.432L0.000610352 734.003V742.021L16.0968 760.488L16.1061 755.256ZM16.1155 726.97L16.1061 729.794L16.0968 735.025L0.000610352 716.559V708.541L16.1155 726.97Z" fill="#E79494"/>
<path fill-rule="evenodd" clip-rule="evenodd" d="M343 900.846H490.882H497.882L497.882 889.254V825.429V300.402H490.882L490.882 831.779L483.33 838.63V889.254H450.377L446.384 893.846H343V900.846ZM486.291 0H497.882V7V11.5909V57.5851V167.949H490.882V51.4982L486.291 47.5054V11.5909H450.38L446.388 7H400.524V0H440.301H486.291ZM503.299 198.901L503.309 196.077L487.194 177.648V185.665L503.29 204.132L503.299 198.901ZM503.309 221.54L503.3 224.363L503.29 229.595L487.194 211.128V203.111L503.309 221.54ZM503.3 249.824L503.309 247.001L487.194 228.572V236.589L503.29 255.056L503.3 249.824ZM503.3 275.287L503.309 272.464L487.194 254.035V262.052L503.29 280.519L503.3 275.287ZM503.309 259.732L503.3 262.555L503.29 267.787L487.194 249.32V241.303L503.309 259.732ZM503.3 288.017L503.309 285.194L487.194 266.765V274.782L503.29 293.249L503.3 288.017ZM503.309 234.273L503.3 237.096L503.29 242.328L487.194 223.861V215.844L503.309 234.273ZM503.3 211.634L503.309 208.81L487.194 190.381V198.399L503.29 216.866L503.3 211.634Z" fill="#E79494"/>
<rect x="131" y="894" width="225" height="7" fill="#E79494"/>
</svg>
