<svg width="902" height="322" viewBox="0 0 902 322" fill="none" xmlns="http://www.w3.org/2000/svg">
<path d="M247.578 0.625L250.402 0.634358L255.633 0.643663L237.166 16.7399H229.149L247.578 0.625Z" fill="#E79494"/>
<path d="M273.041 0.625L275.864 0.634358L281.096 0.643663L262.629 16.7399H254.612L273.041 0.625Z" fill="#E79494"/>
<path d="M222.117 0.625L224.941 0.634358L230.172 0.643663L211.705 16.7399H203.688L222.117 0.625Z" fill="#E79494"/>
<path d="M196.654 0.625488L199.478 0.634846L204.709 0.644151L186.243 16.7404H178.225L196.654 0.625488Z" fill="#E79494"/>
<path d="M260.309 0.625L263.132 0.634358L268.364 0.643663L249.897 16.7399H241.88L260.309 0.625Z" fill="#E79494"/>
<path d="M285.771 0.625L288.594 0.634358L293.826 0.643663L275.359 16.7399H267.342L285.771 0.625Z" fill="#E79494"/>
<path d="M234.85 0.625L237.673 0.634358L242.905 0.643663L224.438 16.7399H216.421L234.85 0.625Z" fill="#E79494"/>
<path d="M209.387 0.625L212.211 0.634358L217.443 0.643663L198.976 16.7399H190.958L209.387 0.625Z" fill="#E79494"/>
<path d="M765.738 305.819L768.561 305.828L773.793 305.837L755.326 321.934H747.309L765.738 305.819Z" fill="#E79494"/>
<path d="M791.2 305.819L794.024 305.828L799.256 305.837L780.789 321.934H772.771L791.2 305.819Z" fill="#E79494"/>
<path d="M740.277 305.819L743.1 305.828L748.332 305.837L729.865 321.934H721.848L740.277 305.819Z" fill="#E79494"/>
<path d="M714.814 305.819L717.637 305.828L722.869 305.838L704.402 321.934H696.385L714.814 305.819Z" fill="#E79494"/>
<path d="M778.469 305.819L781.292 305.828L786.524 305.837L768.057 321.934H760.04L778.469 305.819Z" fill="#E79494"/>
<path d="M803.93 305.819L806.754 305.828L811.986 305.837L793.519 321.934H785.501L803.93 305.819Z" fill="#E79494"/>
<path d="M753.01 305.819L755.833 305.828L761.065 305.837L742.598 321.934H734.581L753.01 305.819Z" fill="#E79494"/>
<path d="M727.547 305.819L730.371 305.828L735.602 305.837L717.136 321.934H709.118L727.547 305.819Z" fill="#E79494"/>
<path fill-rule="evenodd" clip-rule="evenodd" d="M168.526 6.05151H7.57715H0.577148V13.0515V103.41H7.57715V13.0515H168.526V6.05151ZM7.57715 219.198H0.577148V309.556V316.556H7.57715H694.476V309.556H7.57715V219.198ZM894.423 316.556H814.629V309.556H894.423V13.0515H300.979V6.05151H894.423H901.423V13.0515V309.556V316.556H894.423Z" fill="#E79494"/>
<path fill-rule="evenodd" clip-rule="evenodd" d="M0.577151 17.6432V6.05151H12.1681H58.1622L48.0825 17.6432H12.1681L12.1681 53.5538L0.577148 63.6328L0.577151 17.6432Z" fill="#E79494"/>
<path fill-rule="evenodd" clip-rule="evenodd" d="M12.1688 316.556L0.577148 316.556L0.577148 302.004L0.577146 258.971L12.1688 269.051L12.1688 302.004L62.7935 302.004L75.9945 316.556L12.1688 316.556Z" fill="#E79494"/>
<path fill-rule="evenodd" clip-rule="evenodd" d="M889.832 6.05152L901.423 6.05152L901.423 20.6041L901.423 63.6366L889.832 53.5569L889.832 20.6041L839.207 20.6041L826.006 6.05151L889.832 6.05152Z" fill="#E79494"/>
<path fill-rule="evenodd" clip-rule="evenodd" d="M11.4175 254.058V69.2127L17.1329 64.2428L17.1329 28.3322H53.0474L58.7892 21.729H822.857L832.821 32.7129L884.706 32.7129V66.486L890.584 71.5974V300.88H75.9164L68.165 292.335H17.5404L17.5404 259.382L11.4175 254.058Z" fill="#FF0000" fill-opacity="0.2"/>
<path d="M270.825 147.992V121.977H271.353L279.087 140.551V147.992H270.825ZM270.825 112.367V106.977H277.271L288.462 134.105L294.673 120.102H295.259V139.145L291.333 147.992H285.649L270.825 112.367ZM298.423 147.992V106.977H306.685V147.992H298.423ZM323.606 147.992V106.977H344.935V115.18H331.868V123.5H339.427V131.762H331.868V139.73H344.935V147.992H323.606ZM361.622 147.992V121.977H362.149L369.884 140.551V147.992H361.622ZM361.622 112.367V106.977L368.067 106.977L379.259 134.105L385.47 120.102H386.056V139.145L382.13 147.992H376.446L361.622 112.367ZM389.22 147.992V106.977L397.481 106.977V147.992H389.22ZM413.7 147.992V106.977H421.903V147.992H413.7ZM425.126 147.992V140.785H425.419C427.763 140.785 429.325 139.809 430.106 137.855C430.38 137.23 430.517 136.586 430.517 135.922C430.517 133.969 429.735 132.562 428.173 131.703C427.392 131.273 426.532 131.059 425.595 131.059H425.126V123.91H425.595C427.782 123.91 429.286 122.973 430.106 121.098C430.38 120.434 430.517 119.75 430.517 119.047C430.517 117.133 429.716 115.727 428.114 114.828C427.294 114.398 426.396 114.184 425.419 114.184H425.126V106.977H426.532C431.61 106.977 435.185 108.832 437.255 112.543C438.231 114.34 438.72 116.312 438.72 118.461C438.72 121.859 437.685 124.613 435.614 126.723C435.302 126.996 435.009 127.25 434.735 127.484C437.001 129.164 438.31 131.723 438.661 135.16C438.7 135.629 438.72 136.078 438.72 136.508C438.72 140.297 437.392 143.266 434.735 145.414C432.548 147.133 429.813 147.992 426.532 147.992H425.126ZM454.997 147.992V106.977L476.325 106.977V115.18L463.259 115.18V123.5H470.817V131.762H463.259V139.73H476.325V147.992L454.997 147.992ZM493.013 147.992V106.977H501.274V147.992H493.013ZM504.438 131.234V123.91H505.2C507.7 123.91 509.302 122.895 510.005 120.863C510.161 120.355 510.239 119.828 510.239 119.281C510.239 117.211 509.263 115.824 507.31 115.121C506.685 114.887 505.981 114.77 505.2 114.77H504.438V106.977H505.728C510.845 107.055 514.438 108.871 516.509 112.426C517.485 114.105 517.974 116 517.974 118.109C517.935 122.133 516.606 125.219 513.989 127.367C515.942 128.617 517.192 130.883 517.739 134.164C517.778 134.555 517.817 134.926 517.856 135.277L518.853 147.992H511.235L510.356 137.562C510.044 134.437 509.146 132.504 507.661 131.762C506.958 131.449 506.099 131.273 505.083 131.234H504.438ZM533.313 138.734L540.755 136.098C540.755 137.074 541.028 137.934 541.575 138.676C542.122 139.418 542.669 139.906 543.216 140.141L544.036 140.551V148.168C540.716 148.168 537.884 146.723 535.54 143.832C534.095 141.996 533.353 140.297 533.313 138.734ZM533.782 118.227C533.782 113.93 535.618 110.707 539.29 108.559C540.97 107.543 542.552 107.016 544.036 106.977V114.711C543.06 114.984 542.337 115.687 541.868 116.82C541.712 117.172 541.634 117.543 541.634 117.934C541.634 119.535 542.825 120.902 545.208 122.035C545.716 122.27 546.536 122.621 547.669 123.09C549.544 123.832 550.872 124.437 551.653 124.906C554.817 126.781 556.927 128.695 557.981 130.648C558.763 132.172 559.153 133.871 559.153 135.746C559.153 139.301 557.806 142.348 555.11 144.887C552.806 147.074 550.188 148.168 547.259 148.168V140.551C548.782 140.355 549.856 139.555 550.481 138.148C550.755 137.523 550.892 136.84 550.892 136.098C550.892 134.105 549.407 132.465 546.438 131.176C545.892 130.941 545.032 130.609 543.86 130.18C542.493 129.711 541.536 129.34 540.989 129.066C537.63 127.465 535.481 125.395 534.544 122.855C534.036 121.488 533.782 119.945 533.782 118.227ZM547.259 114.711V106.977C550.54 106.977 553.294 108.363 555.521 111.137C556.81 112.777 557.474 114.262 557.513 115.59L549.896 118.109C549.896 116.469 549.095 115.355 547.493 114.77C547.337 114.73 547.259 114.711 547.259 114.711ZM600.028 136.566V117.289C600.028 115.219 600.907 113.109 602.665 110.961C605.009 108.148 607.978 106.723 611.571 106.684V114.945C609.97 114.984 608.915 115.883 608.407 117.641C608.329 117.914 608.29 118.109 608.29 118.227V136.566C608.29 138.168 609.169 139.262 610.927 139.848C611.2 139.926 611.396 139.965 611.513 139.965V148.285C609.286 148.285 607.06 147.484 604.833 145.883C601.669 143.539 600.067 140.434 600.028 136.566ZM614.735 148.285V139.965C615.36 139.965 616.063 139.633 616.845 138.969C617.587 138.305 617.978 137.504 618.017 136.566V118.227C618.017 117.523 617.685 116.781 617.021 116C616.396 115.336 615.634 114.984 614.735 114.945V106.684C618.681 106.684 621.845 108.383 624.228 111.781C625.595 113.734 626.278 115.57 626.278 117.289V136.566C626.278 140.902 624.345 144.223 620.478 146.527C618.446 147.699 616.532 148.285 614.735 148.285ZM642.966 147.992V119.164H643.435L651.228 131.703V147.992H642.966ZM642.966 112.367V106.977H649.704L669.04 138.148V147.992L665.114 147.992L642.966 112.367ZM660.778 118.812V106.977L669.04 106.977V131.352H668.571L660.778 118.812ZM685.962 147.992V106.977L694.224 106.977V139.789H707.993V147.992H685.962ZM721.575 106.977H730.188L737.806 133.168V147.992H729.251V133.227L721.575 106.977ZM735.813 114.887L738.099 106.977H746.595L740.208 128.598H739.681L735.813 114.887Z" fill="white"/>
<path d="M159.632 99.4678H164.944C166.05 99.6247 167.158 99.7696 168.261 99.941C178.311 101.503 186.382 106.434 192.566 114.433C197.434 120.73 200.136 127.904 200.498 135.872C200.681 139.926 200.621 143.994 200.667 148.055C200.672 148.48 200.667 148.905 200.667 149.427C201.476 149.427 202.113 149.436 202.748 149.427C205.09 149.386 206.8 150.496 208.106 152.351C209.386 154.166 209.806 156.243 209.808 158.399C209.825 176.984 209.852 195.571 209.794 214.155C209.782 218.257 208.294 221.609 204.054 223.091H120.517C118.192 222.295 116.395 220.855 115.635 218.492C115.149 216.987 114.799 215.365 114.794 213.793C114.736 195.892 114.751 177.99 114.763 160.087C114.763 158.805 114.816 157.513 114.963 156.238C115.446 152.051 118.387 149.436 122.55 149.424C122.975 149.424 123.4 149.424 123.909 149.424C123.909 145.711 123.883 142.176 123.916 138.641C123.974 132.67 125.044 126.909 127.705 121.52C133.398 109.985 142.424 102.691 155.134 100.158C156.619 99.8613 158.133 99.6947 159.632 99.4678ZM184.518 149.369C184.518 144.511 184.917 139.732 184.429 135.048C183.635 127.423 179.47 121.662 172.743 118.101C157.797 110.186 139.968 120.979 139.833 137.89C139.804 141.35 139.823 144.81 139.828 148.27C139.828 148.62 139.872 148.968 139.898 149.371H184.521L184.518 149.369ZM154.624 194.846C154.624 196.092 154.624 197.338 154.624 198.584C154.624 199.871 154.622 201.158 154.627 202.442C154.639 205.473 156.039 206.89 159.036 206.897C161.206 206.902 163.377 206.902 165.548 206.897C168.542 206.89 169.947 205.473 169.952 202.442C169.959 198.301 169.964 194.161 169.952 190.02C169.944 187.914 170.058 186.028 171.383 184.058C173.955 180.236 173.322 175.598 170.365 171.995C167.89 168.979 162.928 167.673 158.905 168.975C151.889 171.247 149.399 179.615 153.987 185.413C154.347 185.867 154.581 186.545 154.598 187.127C154.663 189.698 154.627 192.272 154.627 194.844L154.624 194.846Z" fill="white"/>
<rect x="268.364" y="242.216" width="444.844" height="2.55957" fill="#E79494"/>
<path d="M277.95 229.224V225.379L283.278 222.776L277.95 220.415V216.479L288.667 221.868V223.805L277.95 229.224Z" fill="white" fill-opacity="0.8"/>
<path fill-rule="evenodd" clip-rule="evenodd" d="M693.812 233.835L704.531 223.116L693.812 212.397L692.343 213.866L700.556 222.08H674.052V224.152H700.556L692.343 232.365L693.812 233.835Z" fill="#E79494"/>
</svg>
